<mxfile host="app.diagrams.net" agent="Mozilla/5.0 (Macintosh; Intel Mac OS X 10_15_7) AppleWebKit/605.1.15 (KHTML, like Gecko) Version/18.1.1 Safari/605.1.15" version="25.0.3">
  <diagram name="Pagina-1" id="U6JxMwVdmcwF4JxIjVA-">
    <mxGraphModel grid="1" page="1" gridSize="10" guides="1" tooltips="1" connect="1" arrows="1" fold="1" pageScale="1" pageWidth="827" pageHeight="1169" math="0" shadow="0">
      <root>
        <mxCell id="0" />
        <mxCell id="1" parent="0" />
        <mxCell id="uTJ3w_Hj1QJGnyJKJYLN-1" style="edgeStyle=orthogonalEdgeStyle;rounded=0;orthogonalLoop=1;jettySize=auto;html=1;entryX=0;entryY=0.5;entryDx=0;entryDy=0;curved=1;" edge="1" parent="1" source="uTJ3w_Hj1QJGnyJKJYLN-3" target="uTJ3w_Hj1QJGnyJKJYLN-8">
          <mxGeometry relative="1" as="geometry" />
        </mxCell>
        <mxCell id="uTJ3w_Hj1QJGnyJKJYLN-2" style="edgeStyle=orthogonalEdgeStyle;rounded=0;orthogonalLoop=1;jettySize=auto;html=1;entryX=0;entryY=0.5;entryDx=0;entryDy=0;curved=1;" edge="1" parent="1" source="uTJ3w_Hj1QJGnyJKJYLN-3" target="uTJ3w_Hj1QJGnyJKJYLN-6">
          <mxGeometry relative="1" as="geometry" />
        </mxCell>
        <mxCell id="uTJ3w_Hj1QJGnyJKJYLN-34" style="edgeStyle=orthogonalEdgeStyle;rounded=0;orthogonalLoop=1;jettySize=auto;html=1;entryX=0;entryY=0.5;entryDx=0;entryDy=0;curved=1;" edge="1" parent="1" source="uTJ3w_Hj1QJGnyJKJYLN-3" target="uTJ3w_Hj1QJGnyJKJYLN-14">
          <mxGeometry relative="1" as="geometry" />
        </mxCell>
        <mxCell id="uTJ3w_Hj1QJGnyJKJYLN-35" style="edgeStyle=orthogonalEdgeStyle;rounded=0;orthogonalLoop=1;jettySize=auto;html=1;entryX=0;entryY=0.5;entryDx=0;entryDy=0;curved=1;" edge="1" parent="1" source="uTJ3w_Hj1QJGnyJKJYLN-3" target="uTJ3w_Hj1QJGnyJKJYLN-15">
          <mxGeometry relative="1" as="geometry" />
        </mxCell>
        <mxCell id="uTJ3w_Hj1QJGnyJKJYLN-36" style="edgeStyle=orthogonalEdgeStyle;rounded=0;orthogonalLoop=1;jettySize=auto;html=1;entryX=0;entryY=0.5;entryDx=0;entryDy=0;curved=1;" edge="1" parent="1" source="uTJ3w_Hj1QJGnyJKJYLN-3" target="uTJ3w_Hj1QJGnyJKJYLN-16">
          <mxGeometry relative="1" as="geometry" />
        </mxCell>
        <mxCell id="uTJ3w_Hj1QJGnyJKJYLN-37" style="edgeStyle=orthogonalEdgeStyle;rounded=0;orthogonalLoop=1;jettySize=auto;html=1;entryX=0;entryY=0.5;entryDx=0;entryDy=0;curved=1;" edge="1" parent="1" source="uTJ3w_Hj1QJGnyJKJYLN-3" target="uTJ3w_Hj1QJGnyJKJYLN-17">
          <mxGeometry relative="1" as="geometry" />
        </mxCell>
        <mxCell id="uTJ3w_Hj1QJGnyJKJYLN-38" style="edgeStyle=orthogonalEdgeStyle;rounded=0;orthogonalLoop=1;jettySize=auto;html=1;entryX=0;entryY=0.5;entryDx=0;entryDy=0;curved=1;" edge="1" parent="1" source="uTJ3w_Hj1QJGnyJKJYLN-3" target="uTJ3w_Hj1QJGnyJKJYLN-18">
          <mxGeometry relative="1" as="geometry" />
        </mxCell>
        <mxCell id="uTJ3w_Hj1QJGnyJKJYLN-39" style="edgeStyle=orthogonalEdgeStyle;rounded=0;orthogonalLoop=1;jettySize=auto;html=1;entryX=0;entryY=0.5;entryDx=0;entryDy=0;curved=1;" edge="1" parent="1" source="uTJ3w_Hj1QJGnyJKJYLN-3" target="uTJ3w_Hj1QJGnyJKJYLN-19">
          <mxGeometry relative="1" as="geometry" />
        </mxCell>
        <mxCell id="uTJ3w_Hj1QJGnyJKJYLN-40" style="edgeStyle=orthogonalEdgeStyle;rounded=0;orthogonalLoop=1;jettySize=auto;html=1;entryX=0;entryY=0.5;entryDx=0;entryDy=0;curved=1;" edge="1" parent="1" source="uTJ3w_Hj1QJGnyJKJYLN-3" target="uTJ3w_Hj1QJGnyJKJYLN-20">
          <mxGeometry relative="1" as="geometry" />
        </mxCell>
        <mxCell id="uTJ3w_Hj1QJGnyJKJYLN-41" style="edgeStyle=orthogonalEdgeStyle;rounded=0;orthogonalLoop=1;jettySize=auto;html=1;entryX=0;entryY=0.5;entryDx=0;entryDy=0;curved=1;" edge="1" parent="1" source="uTJ3w_Hj1QJGnyJKJYLN-3" target="uTJ3w_Hj1QJGnyJKJYLN-21">
          <mxGeometry relative="1" as="geometry" />
        </mxCell>
        <mxCell id="uTJ3w_Hj1QJGnyJKJYLN-42" style="edgeStyle=orthogonalEdgeStyle;rounded=0;orthogonalLoop=1;jettySize=auto;html=1;entryX=0;entryY=0.5;entryDx=0;entryDy=0;curved=1;" edge="1" parent="1" source="uTJ3w_Hj1QJGnyJKJYLN-3" target="uTJ3w_Hj1QJGnyJKJYLN-22">
          <mxGeometry relative="1" as="geometry" />
        </mxCell>
        <mxCell id="uTJ3w_Hj1QJGnyJKJYLN-60" style="edgeStyle=orthogonalEdgeStyle;rounded=0;orthogonalLoop=1;jettySize=auto;html=1;entryX=0;entryY=0.5;entryDx=0;entryDy=0;curved=1;" edge="1" parent="1" source="uTJ3w_Hj1QJGnyJKJYLN-3" target="uTJ3w_Hj1QJGnyJKJYLN-58">
          <mxGeometry relative="1" as="geometry" />
        </mxCell>
        <mxCell id="uTJ3w_Hj1QJGnyJKJYLN-3" value="Student" style="shape=umlActor;verticalLabelPosition=bottom;verticalAlign=top;html=1;outlineConnect=0;" vertex="1" parent="1">
          <mxGeometry x="40" y="480" width="30" height="60" as="geometry" />
        </mxCell>
        <mxCell id="uTJ3w_Hj1QJGnyJKJYLN-4" value="Log in" style="ellipse;whiteSpace=wrap;html=1;" vertex="1" parent="1">
          <mxGeometry x="430" y="485" width="120" height="50" as="geometry" />
        </mxCell>
        <mxCell id="uTJ3w_Hj1QJGnyJKJYLN-6" value="Sign up" style="ellipse;whiteSpace=wrap;html=1;" vertex="1" parent="1">
          <mxGeometry x="190" y="40" width="120" height="50" as="geometry" />
        </mxCell>
        <mxCell id="uTJ3w_Hj1QJGnyJKJYLN-7" style="edgeStyle=orthogonalEdgeStyle;rounded=0;orthogonalLoop=1;jettySize=auto;html=1;entryX=0;entryY=0.5;entryDx=0;entryDy=0;curved=1;dashed=1;" edge="1" parent="1" source="uTJ3w_Hj1QJGnyJKJYLN-8" target="uTJ3w_Hj1QJGnyJKJYLN-4">
          <mxGeometry relative="1" as="geometry" />
        </mxCell>
        <mxCell id="uTJ3w_Hj1QJGnyJKJYLN-8" value="Update profile" style="ellipse;whiteSpace=wrap;html=1;" vertex="1" parent="1">
          <mxGeometry x="190" y="130" width="120" height="50" as="geometry" />
        </mxCell>
        <mxCell id="uTJ3w_Hj1QJGnyJKJYLN-10" value="&amp;lt;&amp;lt;include&amp;gt;&amp;gt;" style="text;html=1;align=center;verticalAlign=middle;whiteSpace=wrap;rounded=0;" vertex="1" parent="1">
          <mxGeometry x="290" y="190" width="50" as="geometry" />
        </mxCell>
        <mxCell id="uTJ3w_Hj1QJGnyJKJYLN-11" style="edgeStyle=orthogonalEdgeStyle;rounded=0;orthogonalLoop=1;jettySize=auto;html=1;exitX=0.5;exitY=1;exitDx=0;exitDy=0;" edge="1" parent="1">
          <mxGeometry relative="1" as="geometry">
            <mxPoint x="365" y="459.9999999999998" as="sourcePoint" />
            <mxPoint x="365" y="459.9999999999998" as="targetPoint" />
          </mxGeometry>
        </mxCell>
        <mxCell id="uTJ3w_Hj1QJGnyJKJYLN-24" style="edgeStyle=orthogonalEdgeStyle;rounded=0;orthogonalLoop=1;jettySize=auto;html=1;entryX=0;entryY=0.5;entryDx=0;entryDy=0;curved=1;dashed=1;" edge="1" parent="1" source="uTJ3w_Hj1QJGnyJKJYLN-14" target="uTJ3w_Hj1QJGnyJKJYLN-4">
          <mxGeometry relative="1" as="geometry" />
        </mxCell>
        <mxCell id="uTJ3w_Hj1QJGnyJKJYLN-14" value="Search position" style="ellipse;whiteSpace=wrap;html=1;" vertex="1" parent="1">
          <mxGeometry x="190" y="220" width="120" height="50" as="geometry" />
        </mxCell>
        <mxCell id="uTJ3w_Hj1QJGnyJKJYLN-26" style="edgeStyle=orthogonalEdgeStyle;rounded=0;orthogonalLoop=1;jettySize=auto;html=1;entryX=0;entryY=0.5;entryDx=0;entryDy=0;curved=1;dashed=1;" edge="1" parent="1" source="uTJ3w_Hj1QJGnyJKJYLN-15" target="uTJ3w_Hj1QJGnyJKJYLN-4">
          <mxGeometry relative="1" as="geometry" />
        </mxCell>
        <mxCell id="uTJ3w_Hj1QJGnyJKJYLN-43" style="edgeStyle=orthogonalEdgeStyle;rounded=0;orthogonalLoop=1;jettySize=auto;html=1;entryX=0.5;entryY=1;entryDx=0;entryDy=0;curved=1;dashed=1;" edge="1" parent="1" source="uTJ3w_Hj1QJGnyJKJYLN-15" target="uTJ3w_Hj1QJGnyJKJYLN-14">
          <mxGeometry relative="1" as="geometry" />
        </mxCell>
        <mxCell id="uTJ3w_Hj1QJGnyJKJYLN-15" value="View position" style="ellipse;whiteSpace=wrap;html=1;" vertex="1" parent="1">
          <mxGeometry x="190" y="310" width="120" height="50" as="geometry" />
        </mxCell>
        <mxCell id="uTJ3w_Hj1QJGnyJKJYLN-27" style="edgeStyle=orthogonalEdgeStyle;rounded=0;orthogonalLoop=1;jettySize=auto;html=1;entryX=0;entryY=0.5;entryDx=0;entryDy=0;dashed=1;curved=1;" edge="1" parent="1" source="uTJ3w_Hj1QJGnyJKJYLN-16" target="uTJ3w_Hj1QJGnyJKJYLN-4">
          <mxGeometry relative="1" as="geometry" />
        </mxCell>
        <mxCell id="uTJ3w_Hj1QJGnyJKJYLN-16" value="View company" style="ellipse;whiteSpace=wrap;html=1;" vertex="1" parent="1">
          <mxGeometry x="190" y="400" width="120" height="50" as="geometry" />
        </mxCell>
        <mxCell id="uTJ3w_Hj1QJGnyJKJYLN-28" style="rounded=0;orthogonalLoop=1;jettySize=auto;html=1;entryX=0;entryY=0.5;entryDx=0;entryDy=0;dashed=1;" edge="1" parent="1" source="uTJ3w_Hj1QJGnyJKJYLN-17" target="uTJ3w_Hj1QJGnyJKJYLN-4">
          <mxGeometry relative="1" as="geometry" />
        </mxCell>
        <mxCell id="uTJ3w_Hj1QJGnyJKJYLN-17" value="Apply for position" style="ellipse;whiteSpace=wrap;html=1;" vertex="1" parent="1">
          <mxGeometry x="190" y="485" width="120" height="50" as="geometry" />
        </mxCell>
        <mxCell id="uTJ3w_Hj1QJGnyJKJYLN-45" style="edgeStyle=orthogonalEdgeStyle;rounded=0;orthogonalLoop=1;jettySize=auto;html=1;entryX=0.5;entryY=1;entryDx=0;entryDy=0;curved=1;dashed=1;" edge="1" parent="1" source="uTJ3w_Hj1QJGnyJKJYLN-18" target="uTJ3w_Hj1QJGnyJKJYLN-17">
          <mxGeometry relative="1" as="geometry" />
        </mxCell>
        <mxCell id="uTJ3w_Hj1QJGnyJKJYLN-18" value="Withdraw application" style="ellipse;whiteSpace=wrap;html=1;" vertex="1" parent="1">
          <mxGeometry x="190" y="580" width="120" height="50" as="geometry" />
        </mxCell>
        <mxCell id="uTJ3w_Hj1QJGnyJKJYLN-30" style="edgeStyle=orthogonalEdgeStyle;rounded=0;orthogonalLoop=1;jettySize=auto;html=1;entryX=0;entryY=0.5;entryDx=0;entryDy=0;curved=1;dashed=1;" edge="1" parent="1" source="uTJ3w_Hj1QJGnyJKJYLN-19" target="uTJ3w_Hj1QJGnyJKJYLN-4">
          <mxGeometry relative="1" as="geometry" />
        </mxCell>
        <mxCell id="uTJ3w_Hj1QJGnyJKJYLN-19" value="Accept recommendation" style="ellipse;whiteSpace=wrap;html=1;" vertex="1" parent="1">
          <mxGeometry x="190" y="670" width="120" height="50" as="geometry" />
        </mxCell>
        <mxCell id="uTJ3w_Hj1QJGnyJKJYLN-31" style="edgeStyle=orthogonalEdgeStyle;rounded=0;orthogonalLoop=1;jettySize=auto;html=1;entryX=0;entryY=0.5;entryDx=0;entryDy=0;curved=1;dashed=1;" edge="1" parent="1" source="uTJ3w_Hj1QJGnyJKJYLN-20" target="uTJ3w_Hj1QJGnyJKJYLN-4">
          <mxGeometry relative="1" as="geometry" />
        </mxCell>
        <mxCell id="uTJ3w_Hj1QJGnyJKJYLN-20" value="Fill out feedback form" style="ellipse;whiteSpace=wrap;html=1;" vertex="1" parent="1">
          <mxGeometry x="190" y="760" width="120" height="50" as="geometry" />
        </mxCell>
        <mxCell id="uTJ3w_Hj1QJGnyJKJYLN-32" style="edgeStyle=orthogonalEdgeStyle;rounded=0;orthogonalLoop=1;jettySize=auto;html=1;entryX=0;entryY=0.5;entryDx=0;entryDy=0;dashed=1;curved=1;" edge="1" parent="1" source="uTJ3w_Hj1QJGnyJKJYLN-21" target="uTJ3w_Hj1QJGnyJKJYLN-4">
          <mxGeometry relative="1" as="geometry" />
        </mxCell>
        <mxCell id="uTJ3w_Hj1QJGnyJKJYLN-21" value="Fill out questionnaire" style="ellipse;whiteSpace=wrap;html=1;" vertex="1" parent="1">
          <mxGeometry x="190" y="850" width="120" height="50" as="geometry" />
        </mxCell>
        <mxCell id="uTJ3w_Hj1QJGnyJKJYLN-59" style="edgeStyle=orthogonalEdgeStyle;rounded=0;orthogonalLoop=1;jettySize=auto;html=1;entryX=0;entryY=0.5;entryDx=0;entryDy=0;curved=1;dashed=1;" edge="1" parent="1" source="uTJ3w_Hj1QJGnyJKJYLN-22" target="uTJ3w_Hj1QJGnyJKJYLN-4">
          <mxGeometry relative="1" as="geometry" />
        </mxCell>
        <mxCell id="uTJ3w_Hj1QJGnyJKJYLN-22" value="Comment internship" style="ellipse;whiteSpace=wrap;html=1;" vertex="1" parent="1">
          <mxGeometry x="190" y="1030" width="120" height="50" as="geometry" />
        </mxCell>
        <mxCell id="uTJ3w_Hj1QJGnyJKJYLN-44" value="&amp;lt;&amp;lt;extend&amp;gt;&amp;gt;" style="text;html=1;align=center;verticalAlign=middle;whiteSpace=wrap;rounded=0;" vertex="1" parent="1">
          <mxGeometry x="180" y="290" width="50" as="geometry" />
        </mxCell>
        <mxCell id="uTJ3w_Hj1QJGnyJKJYLN-46" value="&amp;lt;&amp;lt;include&amp;gt;&amp;gt;" style="text;html=1;align=center;verticalAlign=middle;whiteSpace=wrap;rounded=0;" vertex="1" parent="1">
          <mxGeometry x="180" y="560" width="50" as="geometry" />
        </mxCell>
        <mxCell id="uTJ3w_Hj1QJGnyJKJYLN-47" value="&amp;lt;&amp;lt;include&amp;gt;&amp;gt;" style="text;html=1;align=center;verticalAlign=middle;whiteSpace=wrap;rounded=0;" vertex="1" parent="1">
          <mxGeometry x="290" y="930" width="50" as="geometry" />
        </mxCell>
        <mxCell id="uTJ3w_Hj1QJGnyJKJYLN-48" value="&amp;lt;&amp;lt;include&amp;gt;&amp;gt;" style="text;html=1;align=center;verticalAlign=middle;whiteSpace=wrap;rounded=0;" vertex="1" parent="1">
          <mxGeometry x="290" y="460" width="50" as="geometry" />
        </mxCell>
        <mxCell id="uTJ3w_Hj1QJGnyJKJYLN-49" value="&amp;lt;&amp;lt;include&amp;gt;&amp;gt;" style="text;html=1;align=center;verticalAlign=middle;whiteSpace=wrap;rounded=0;" vertex="1" parent="1">
          <mxGeometry x="290" y="370" width="50" as="geometry" />
        </mxCell>
        <mxCell id="uTJ3w_Hj1QJGnyJKJYLN-50" value="&amp;lt;&amp;lt;include&amp;gt;&amp;gt;" style="text;html=1;align=center;verticalAlign=middle;whiteSpace=wrap;rounded=0;" vertex="1" parent="1">
          <mxGeometry x="290" y="280" width="50" as="geometry" />
        </mxCell>
        <mxCell id="uTJ3w_Hj1QJGnyJKJYLN-51" value="&amp;lt;&amp;lt;include&amp;gt;&amp;gt;" style="text;html=1;align=center;verticalAlign=middle;whiteSpace=wrap;rounded=0;" vertex="1" parent="1">
          <mxGeometry x="290" y="660" width="50" as="geometry" />
        </mxCell>
        <mxCell id="uTJ3w_Hj1QJGnyJKJYLN-52" value="&amp;lt;&amp;lt;include&amp;gt;&amp;gt;" style="text;html=1;align=center;verticalAlign=middle;whiteSpace=wrap;rounded=0;" vertex="1" parent="1">
          <mxGeometry x="290" y="750" width="50" as="geometry" />
        </mxCell>
        <mxCell id="uTJ3w_Hj1QJGnyJKJYLN-53" value="&amp;lt;&amp;lt;include&amp;gt;&amp;gt;" style="text;html=1;align=center;verticalAlign=middle;whiteSpace=wrap;rounded=0;" vertex="1" parent="1">
          <mxGeometry x="290" y="840" width="50" as="geometry" />
        </mxCell>
        <mxCell id="uTJ3w_Hj1QJGnyJKJYLN-55" value="&amp;lt;&amp;lt;include&amp;gt;&amp;gt;" style="text;html=1;align=center;verticalAlign=middle;whiteSpace=wrap;rounded=0;" vertex="1" parent="1">
          <mxGeometry x="320" y="520" width="50" as="geometry" />
        </mxCell>
        <mxCell id="uTJ3w_Hj1QJGnyJKJYLN-57" style="edgeStyle=orthogonalEdgeStyle;rounded=0;orthogonalLoop=1;jettySize=auto;html=1;exitX=0;exitY=0;exitDx=0;exitDy=0;" edge="1" parent="1" source="uTJ3w_Hj1QJGnyJKJYLN-53" target="uTJ3w_Hj1QJGnyJKJYLN-53">
          <mxGeometry relative="1" as="geometry" />
        </mxCell>
        <mxCell id="uTJ3w_Hj1QJGnyJKJYLN-63" style="edgeStyle=orthogonalEdgeStyle;rounded=0;orthogonalLoop=1;jettySize=auto;html=1;entryX=0;entryY=0.5;entryDx=0;entryDy=0;curved=1;dashed=1;" edge="1" parent="1" source="uTJ3w_Hj1QJGnyJKJYLN-58" target="uTJ3w_Hj1QJGnyJKJYLN-4">
          <mxGeometry relative="1" as="geometry" />
        </mxCell>
        <mxCell id="uTJ3w_Hj1QJGnyJKJYLN-58" value="Accept interview" style="ellipse;whiteSpace=wrap;html=1;" vertex="1" parent="1">
          <mxGeometry x="190" y="940" width="120" height="50" as="geometry" />
        </mxCell>
        <mxCell id="uTJ3w_Hj1QJGnyJKJYLN-62" value="&amp;lt;&amp;lt;include&amp;gt;&amp;gt;" style="text;html=1;align=center;verticalAlign=middle;whiteSpace=wrap;rounded=0;" vertex="1" parent="1">
          <mxGeometry x="290" y="1020" width="50" as="geometry" />
        </mxCell>
      </root>
    </mxGraphModel>
  </diagram>
</mxfile>
